<?xml version="1.0" encoding="utf-8"?>
<!-- Generator: Adobe Illustrator 16.0.0, SVG Export Plug-In . SVG Version: 6.00 Build 0)  -->
<!DOCTYPE svg PUBLIC "-//W3C//DTD SVG 1.1//EN" "http://www.w3.org/Graphics/SVG/1.1/DTD/svg11.dtd">
<svg version="1.1" id="Layer_1" xmlns="http://www.w3.org/2000/svg" xmlns:xlink="http://www.w3.org/1999/xlink" x="0px" y="0px"
	 width="569.571px" height="730.148px" viewBox="0 0 569.571 730.148" enable-background="new 0 0 569.571 730.148"
	 xml:space="preserve">
<g>
	<path fill="none" stroke="#FFFFFF" stroke-width="2" stroke-miterlimit="10" d="M472.057,428.883c3.89,3.889,3.89,10.253,0,14.143
		L188.852,726.231c-3.889,3.89-10.253,3.89-14.143,0L3.917,555.438c-3.889-3.89-3.889-10.253,0-14.143l283.205-283.205
		c3.89-3.889,10.253-3.889,14.143,0L472.057,428.883z"/>
</g>
<g>
	<path fill="none" stroke="#FFFFFF" stroke-width="2" stroke-miterlimit="10" d="M432.228,414.32c3.89,3.889,3.89,10.253,0,14.143
		L174.289,686.402c-3.889,3.89-10.253,3.89-14.143,0L27.428,553.684c-3.889-3.89-3.889-10.253,0-14.143l257.939-257.939
		c3.89-3.889,10.253-3.889,14.143,0L432.228,414.32z"/>
</g>
<circle fill="none" stroke="#ED1F24" stroke-width="2" stroke-miterlimit="10" cx="315.788" cy="569.961" r="10.109"/>
<circle fill="none" stroke="#ED1F24" stroke-width="2" stroke-miterlimit="10" cx="537.581" cy="685.34" r="21.648"/>
<rect x="316.642" y="582.001" transform="matrix(0.7071 -0.7071 0.7071 0.7071 -319.2329 411.2351)" fill="none" stroke="#FFFFFF" stroke-width="2" stroke-miterlimit="10" width="40.317" height="17.949"/>
<line fill="none" stroke="#FFFFFF" stroke-width="2" stroke-miterlimit="10" x1="254.607" y1="685.86" x2="431.686" y2="508.782"/>
<g>
	<path fill="#FFFFFF" d="M167.655,575.113l-3.417-3.418l-1.994-84.39l40.344,40.344l9.777-9.777l6.265,6.265l-9.777,9.778
		l19.365,19.364l-7.025,7.024l-19.364-19.364L167.655,575.113z M171.452,558.785l24.111-24.111l-26.484-26.484L171.452,558.785z"/>
	<path fill="#FFFFFF" d="M208.094,507.904c-13.29-13.29-30.092-37.307-10.062-57.337c20.22-20.219,43.951-3.132,57.241,10.158
		s30.282,36.926,10.063,57.146C245.306,537.901,221.289,521.098,208.094,507.904z M247.679,468.319
		c-9.683-9.683-28.099-26.58-43.287-11.392c-15.094,15.094,1.613,33.699,11.296,43.382s28.193,26.296,43.287,11.202
		C274.164,496.323,257.362,478.001,247.679,468.319z"/>
	<path fill="#FFFFFF" d="M271.507,471.26l-3.417-3.417l-1.994-84.39l40.345,40.344l9.777-9.778l6.266,6.266l-9.778,9.778
		l19.365,19.365l-7.024,7.024l-19.364-19.365L271.507,471.26z M275.304,454.933l24.111-24.112l-26.485-26.485L275.304,454.933z"/>
</g>
<polyline fill="none" stroke="#FFFFFF" stroke-width="2" stroke-miterlimit="10" points="155.387,282.346 159.066,384.732 
	56.679,381.053 "/>
<g>
	<path fill="none" stroke="#FFFFFF" stroke-width="2" stroke-miterlimit="10" d="M506.592,710.329c0,3.3,2.7,6,6,6h49.979
		c3.3,0,6-2.7,6-6V660.35c0-3.3-2.7-6-6-6h-49.979c-3.3,0-6,2.7-6,6V710.329z"/>
</g>
<g>
	<path fill="none" stroke="#FFFFFF" stroke-width="2" stroke-miterlimit="10" d="M514.999,701.923c0,3.3,2.7,6,6,6h33.167
		c3.3,0,6-2.7,6-6v-33.167c0-3.3-2.7-6-6-6h-33.167c-3.3,0-6,2.7-6,6V701.923z"/>
</g>
<rect x="524.453" y="677.988" fill="none" stroke="#FFFFFF" stroke-width="2" stroke-miterlimit="10" width="6.303" height="14.705"/>
<g>
	<path fill="none" stroke="#FFFFFF" stroke-width="2" stroke-miterlimit="10" d="M279.069,54.881c0,2.2-1.531,4-3.403,4
		s-3.403-1.8-3.403-4V47c0-2.2,1.531-4,3.403-4s3.403,1.8,3.403,4V54.881z"/>
</g>
<rect x="543.361" y="677.988" fill="none" stroke="#FFFFFF" stroke-width="2" stroke-miterlimit="10" width="6.303" height="14.705"/>
<g>
	<path fill="none" stroke="#FFFFFF" stroke-width="2" stroke-miterlimit="10" d="M465.875,689.47c0,4.4-3.6,8-8,8h-18.188
		c-4.4,0-8-3.6-8-8v-18.188c0-4.4,3.6-8,8-8h18.188c4.4,0,8,3.6,8,8V689.47z"/>
</g>
<g>
	<path fill="none" stroke="#FFFFFF" stroke-width="2" stroke-miterlimit="10" d="M446.312,663.949v-9.196c0-2.2,1.563-4,3.473-4
		c1.911,0,3.474,1.8,3.474,4v9.196"/>
</g>
<rect x="437.925" y="697.47" fill="none" stroke="#FFFFFF" stroke-width="2" stroke-miterlimit="10" width="5.333" height="10.333"/>
<rect x="454.924" y="697.47" fill="none" stroke="#FFFFFF" stroke-width="2" stroke-miterlimit="10" width="5.333" height="10.333"/>
<line fill="none" stroke="#FFFFFF" stroke-width="2" stroke-miterlimit="10" x1="449.786" y1="462.303" x2="449.786" y2="650.751"/>
<g>
	<path fill="none" stroke="#FFFFFF" stroke-width="2" stroke-miterlimit="10" d="M283.333,79.994c0,2.2-1.631,4.761-3.625,5.69
		l-8.082,3.769c-1.994,0.93-3.625-0.109-3.625-2.31v-1.333c0-2.2,1.631-4.761,3.625-5.69l8.082-3.769
		c1.994-0.93,3.625,0.109,3.625,2.31V79.994z"/>
</g>
<g>
	<path fill="none" stroke="#FFFFFF" stroke-width="2" stroke-miterlimit="10" d="M283.333,89.486c0,2.2-1.631,4.761-3.625,5.69
		l-8.082,3.769c-1.994,0.93-3.625-0.109-3.625-2.31v-1.333c0-2.2,1.631-4.761,3.625-5.69l8.082-3.769
		c1.994-0.93,3.625,0.109,3.625,2.31V89.486z"/>
</g>
<g>
	<path fill="none" stroke="#FFFFFF" stroke-width="2" stroke-miterlimit="10" d="M283.333,98.874c0,2.2-1.631,4.761-3.625,5.69
		l-8.082,3.769c-1.994,0.93-3.625-0.109-3.625-2.31v-1.333c0-2.2,1.631-4.761,3.625-5.69l8.082-3.769
		c1.994-0.93,3.625,0.109,3.625,2.31V98.874z"/>
</g>
<g>
	<path fill="none" stroke="#FFFFFF" stroke-width="2" stroke-miterlimit="10" d="M283.333,108.366c0,2.2-1.631,4.761-3.625,5.69
		l-8.082,3.769c-1.994,0.93-3.625-0.109-3.625-2.31v-1.333c0-2.2,1.631-4.761,3.625-5.69l8.082-3.769
		c1.994-0.93,3.625,0.109,3.625,2.31V108.366z"/>
</g>
<g>
	<path fill="none" stroke="#FFFFFF" stroke-width="2" stroke-miterlimit="10" d="M283.333,118.093c0,2.2-1.631,4.761-3.625,5.69
		l-8.082,3.769c-1.994,0.93-3.625-0.109-3.625-2.31v-1.333c0-2.2,1.631-4.761,3.625-5.69l8.082-3.769
		c1.994-0.93,3.625,0.109,3.625,2.31V118.093z"/>
</g>
<g>
	<path fill="none" stroke="#FFFFFF" stroke-width="2" stroke-miterlimit="10" d="M283.333,127.585c0,2.2-1.631,4.761-3.625,5.69
		l-8.082,3.769c-1.994,0.93-3.625-0.109-3.625-2.31v-1.333c0-2.2,1.631-4.761,3.625-5.69l8.082-3.769
		c1.994-0.93,3.625,0.109,3.625,2.31V127.585z"/>
</g>
<g>
	<path fill="none" stroke="#FFFFFF" stroke-width="2" stroke-miterlimit="10" d="M283.333,136.973c0,2.2-1.631,4.761-3.625,5.69
		l-8.082,3.769c-1.994,0.93-3.625-0.109-3.625-2.31v-1.333c0-2.2,1.631-4.761,3.625-5.69l8.082-3.769
		c1.994-0.93,3.625,0.109,3.625,2.31V136.973z"/>
</g>
<g>
	<path fill="none" stroke="#FFFFFF" stroke-width="2" stroke-miterlimit="10" d="M283.333,146.466c0,2.2-1.631,4.761-3.625,5.69
		l-8.082,3.769c-1.994,0.929-3.625-0.11-3.625-2.31v-1.333c0-2.2,1.631-4.761,3.625-5.69l8.082-3.769
		c1.994-0.93,3.625,0.109,3.625,2.31V146.466z"/>
</g>
<g>
	<path fill="none" stroke="#FFFFFF" stroke-width="2" stroke-miterlimit="10" d="M283.333,156.238c0,2.2-1.631,4.761-3.625,5.69
		l-8.082,3.769c-1.994,0.93-3.625-0.109-3.625-2.31v-1.333c0-2.2,1.631-4.761,3.625-5.69l8.082-3.769
		c1.994-0.93,3.625,0.109,3.625,2.31V156.238z"/>
</g>
<g>
	<path fill="none" stroke="#FFFFFF" stroke-width="2" stroke-miterlimit="10" d="M283.333,165.73c0,2.2-1.631,4.761-3.625,5.69
		l-8.082,3.769c-1.994,0.93-3.625-0.109-3.625-2.31v-1.333c0-2.2,1.631-4.761,3.625-5.69l8.082-3.769
		c1.994-0.93,3.625,0.109,3.625,2.31V165.73z"/>
</g>
<g>
	<path fill="none" stroke="#FFFFFF" stroke-width="2" stroke-miterlimit="10" d="M283.333,175.118c0,2.2-1.631,4.761-3.625,5.69
		l-8.082,3.769c-1.994,0.93-3.625-0.109-3.625-2.31v-1.333c0-2.2,1.631-4.761,3.625-5.69l8.082-3.769
		c1.994-0.93,3.625,0.109,3.625,2.31V175.118z"/>
</g>
<g>
	<path fill="none" stroke="#FFFFFF" stroke-width="2" stroke-miterlimit="10" d="M283.333,184.61c0,2.2-1.631,4.761-3.625,5.69
		l-8.082,3.769c-1.994,0.93-3.625-0.109-3.625-2.31v-1.333c0-2.2,1.631-4.761,3.625-5.69l8.082-3.769
		c1.994-0.93,3.625,0.109,3.625,2.31V184.61z"/>
</g>
<g>
	<path fill="none" stroke="#FFFFFF" stroke-width="2" stroke-miterlimit="10" d="M283.333,194.337c0,2.2-1.631,4.761-3.625,5.69
		l-8.083,3.77c-1.994,0.93-3.625-0.109-3.625-2.31v-1.334c0-2.2,1.631-4.761,3.625-5.69l8.082-3.769
		c1.994-0.929,3.625,0.11,3.625,2.31V194.337z"/>
</g>
<g>
	<path fill="none" stroke="#FFFFFF" stroke-width="2" stroke-miterlimit="10" d="M283.333,203.829c0,2.2-1.631,4.761-3.625,5.69
		l-8.083,3.77c-1.994,0.93-3.625-0.109-3.625-2.31v-1.334c0-2.2,1.631-4.761,3.625-5.69l8.082-3.769
		c1.994-0.929,3.625,0.11,3.625,2.31V203.829z"/>
</g>
<g>
	<path fill="none" stroke="#FFFFFF" stroke-width="2" stroke-miterlimit="10" d="M283.333,213.218c0,2.2-1.631,4.761-3.625,5.69
		l-8.082,3.769c-1.994,0.929-3.625-0.11-3.625-2.31v-1.332c0-2.2,1.631-4.761,3.625-5.69l8.083-3.77
		c1.994-0.93,3.625,0.109,3.625,2.31V213.218z"/>
</g>
<g>
	<path fill="none" stroke="#FFFFFF" stroke-width="2" stroke-miterlimit="10" d="M283.333,222.71c0,2.2-1.631,4.761-3.625,5.69
		l-8.082,3.769c-1.994,0.929-3.625-0.11-3.625-2.31v-1.332c0-2.2,1.631-4.761,3.625-5.69l8.083-3.77
		c1.994-0.93,3.625,0.109,3.625,2.31V222.71z"/>
</g>
<g>
	<path fill="none" stroke="#FFFFFF" stroke-width="2" stroke-miterlimit="10" d="M283.333,233.003c0,2.2-1.631,4.761-3.625,5.69
		l-8.083,3.77c-1.994,0.93-3.625-0.109-3.625-2.31v-1.334c0-2.2,1.631-4.761,3.625-5.69l8.082-3.769
		c1.994-0.929,3.625,0.11,3.625,2.31V233.003z"/>
</g>
<g>
	<path fill="none" stroke="#FFFFFF" stroke-width="2" stroke-miterlimit="10" d="M283.333,242.495c0,2.2-1.631,4.761-3.625,5.69
		l-8.083,3.77c-1.994,0.93-3.625-0.109-3.625-2.31v-1.334c0-2.2,1.631-4.761,3.625-5.69l8.082-3.769
		c1.994-0.929,3.625,0.11,3.625,2.31V242.495z"/>
</g>
<g>
	<path fill="none" stroke="#FFFFFF" stroke-width="2" stroke-miterlimit="10" d="M283.333,251.884c0,2.2-1.631,4.761-3.625,5.69
		l-8.082,3.769c-1.994,0.929-3.625-0.11-3.625-2.31V257.7c0-2.2,1.631-4.761,3.625-5.69l8.083-3.77
		c1.994-0.93,3.625,0.109,3.625,2.31V251.884z"/>
</g>
<g>
	<path fill="none" stroke="#FFFFFF" stroke-width="2" stroke-miterlimit="10" d="M274.91,270.303c0,0-1.555,0.725-3.455,1.611
		S268,271.725,268,269.524v-2.332c0-2.2,1.631-4.761,3.625-5.69l8.083-3.77c1.994-0.93,3.625-0.501,3.625,0.953
		c0,1.454,0,2.644,0,2.644"/>
</g>
<line fill="none" stroke="#FFFFFF" stroke-width="2" stroke-miterlimit="10" x1="275.667" y1="59.115" x2="275.667" y2="77.615"/>
<line fill="none" stroke="#FFFFFF" stroke-width="2" stroke-miterlimit="10" x1="275.667" y1="0" x2="275.667" y2="27.5"/>
<g>
	<path fill="none" stroke="#FFFFFF" stroke-width="2" stroke-miterlimit="10" d="M284.667,39c0,2.2-1.8,4-4,4h-10c-2.2,0-4-1.8-4-4
		v-7.5c0-2.2,1.8-4,4-4h10c2.2,0,4,1.8,4,4V39z"/>
</g>
</svg>
