<svg version="1.1" id="profile-transfer" xmlns="http://www.w3.org/2000/svg" xmlns:xlink="http://www.w3.org/1999/xlink" x="0px"
	 y="0px" width="24px" height="24px" viewBox="0 0 24 24" enable-background="new 0 0 24 24" xml:space="preserve">
<path id="path" fill="#ffffff" d="M6,1C3.791,1,2,2.791,2,5v12c0,2.209,1.791,4,4,4h3.586l-1.293,1.293l1.414,1.414l3-3
	c0.391-0.391,0.391-1.023,0-1.414l-3-3l-1.414,1.414L9.586,19H6c-1.104,0-2-0.896-2-2V5c0-1.104,0.896-2,2-2h12c1.104,0,2,0.896,2,2
	v12c0,1.104-0.896,2-2,2h-3v2h3c2.209,0,4-1.791,4-4V5c0-2.209-1.791-4-4-4H6z M7.5,10C8.329,10,9,9.329,9,8.5S8.329,7,7.5,7
	S6,7.671,6,8.5S6.671,10,7.5,10z M18,8.5c0,0.829-0.672,1.5-1.5,1.5S15,9.329,15,8.5S15.672,7,16.5,7S18,7.671,18,8.5z
	 M16.402,12.198C15.797,12.65,14.758,13,13.5,13s-2.297-0.35-2.902-0.802l-1.196,1.604C10.43,14.568,11.919,15,13.5,15
	c1.58,0,3.07-0.432,4.098-1.198L16.402,12.198z"/>
</svg>