<?xml version="1.0" encoding="utf-8"?>
<!-- Generator: Adobe Illustrator 16.0.0, SVG Export Plug-In . SVG Version: 6.00 Build 0)  -->
<!DOCTYPE svg PUBLIC "-//W3C//DTD SVG 1.1//EN" "http://www.w3.org/Graphics/SVG/1.1/DTD/svg11.dtd">
<svg version="1.1" id="rank-9" xmlns="http://www.w3.org/2000/svg" xmlns:xlink="http://www.w3.org/1999/xlink" x="0px" y="0px"
	 width="773.247px" height="994.026px" viewBox="272.468 2.987 773.247 994.026"
	 enable-background="new 272.468 2.987 773.247 994.026" xml:space="preserve">
<path stroke="#595959" stroke-width="20" d="M529.608,751.998H298.528c19.336,69.99,58.202,125.632,116.843,167.366
	c63.284,45.039,143.486,67.648,240.967,67.648c121.027,0,213.86-40.922,279.671-122.891
	c66.287-82.562,99.706-204.746,99.706-366.869c0-93.614-15.073-177.112-45.152-250.574
	c-29.828-72.849-74.172-129.924-133.137-171.505c-58.713-41.403-132.507-62.187-221.739-62.187
	c-45.324,0-89.048,7.53-131.239,22.595c-42.08,15.027-79.913,37.102-113.571,66.266c-33.527,29.05-59.972,63.791-79.396,104.315
	c-19.318,40.302-29.012,86.463-29.012,138.617c0,57.244,13.168,107.83,39.473,152.01c26.394,44.329,61.717,79.136,106.124,104.579
	c44.35,25.411,93.748,38.116,148.424,38.116c50.689,0,93.055-7.265,127.113-21.643c33.781-14.26,62.316-36.044,85.753-65.491
	l25.96-32.617l-2.842,41.591c-5.671,82.987-22.872,142.819-52.387,179.629c-30.015,37.434-70.004,56.374-118.893,56.374
	c-28.406,0-52.295-4.47-71.632-13.608C552.552,775.681,539.161,765.104,529.608,751.998z M642.857,201.299
	c38.089,0,71.052,12.574,98.246,37.549c27.475,25.231,41.364,57.376,41.364,95.567s-13.89,70.336-41.364,95.568
	c-27.194,24.975-60.157,37.549-98.246,37.549s-71.052-12.574-98.247-37.549c-27.474-25.231-41.363-57.377-41.363-95.568
	s13.89-70.336,41.363-95.567C571.806,213.873,604.769,201.299,642.857,201.299z"/>
</svg>
