<?xml version="1.0" encoding="utf-8"?>
<!-- Generator: Adobe Illustrator 16.0.0, SVG Export Plug-In . SVG Version: 6.00 Build 0)  -->
<!DOCTYPE svg PUBLIC "-//W3C//DTD SVG 1.1//EN" "http://www.w3.org/Graphics/SVG/1.1/DTD/svg11.dtd">
<svg version="1.1" id="rank-5" xmlns="http://www.w3.org/2000/svg" xmlns:xlink="http://www.w3.org/1999/xlink" x="0px" y="0px"
	 width="759.668px" height="994.026px" viewBox="240.592 2.987 759.668 994.026"
	 enable-background="new 240.592 2.987 759.668 994.026" xml:space="preserve">
<path stroke="#595959" stroke-width="20" d="M922.649,208.922V12.987H324.896L271,586.733h210.799
	c13.929-15.337,31.598-27.623,52.877-36.851c23.279-10.091,48.98-15.116,77.006-15.116c40.565,0,74.143,11.331,100.117,34.123
	c26.37,23.143,39.637,54.351,39.637,92.63c0,39.228-13.273,70.714-39.747,93.422c-25.968,22.272-59.493,33.325-100.007,33.325
	c-27.915,0-53.052-4.507-75.331-13.604c-20.194-8.233-36.214-19.13-47.844-32.74H253.844
	c21.48,75.279,63.519,133.916,126.364,176.39c67.662,45.74,153.169,68.701,256.818,68.701c65.714,0,125.285-12.922,178.883-38.74
	C869.143,922.63,911.436,885.169,943,835.708c31.455-49.286,47.26-110.065,47.26-182.617c0-59.623-13.071-112.429-39.169-158.643
	c-26.104-46.221-61.779-82.468-107.208-108.929c-45.39-26.441-96.422-39.669-153.324-39.669
	c-71.818,0-130.513,22.617-176.845,67.929l-25.272,24.714l21.254-229.571H922.649z"/>
</svg>
