<?xml version="1.0" encoding="utf-8"?>
<!-- Generator: Adobe Illustrator 16.0.0, SVG Export Plug-In . SVG Version: 6.00 Build 0)  -->
<!DOCTYPE svg PUBLIC "-//W3C//DTD SVG 1.1//EN" "http://www.w3.org/Graphics/SVG/1.1/DTD/svg11.dtd">
<svg version="1.1" id="Layer_1" xmlns="http://www.w3.org/2000/svg" xmlns:xlink="http://www.w3.org/1999/xlink" x="0px" y="0px"
	 width="773.247px" height="994.027px" viewBox="240 2.987 773.247 994.027" enable-background="new 240 2.987 773.247 994.027"
	 xml:space="preserve">
<path stroke="#595959" stroke-width="20" d="M753.13,248H983.98c-21.324-71.071-58.201-127.098-110.701-168.429
	c-56.247-44.286-132.818-66.584-230.13-66.584c-76.552,0-144.123,18.572-203.039,55.695
	c-58.857,37.091-105.182,91.494-139.039,163.494C267.078,304.5,250,392.37,250,495.877c0,93.61,15.299,177.559,45.838,251.935
	c30.305,73.818,75.149,132.078,134.636,175.039c59.163,42.733,132.676,64.162,220.929,64.162c44,0.08,87.71-7.112,129.364-21.285
	c41.262-13.947,79.539-35.516,112.844-63.585c33.468-28.117,60.098-62.598,79.961-103.552c19.753-40.733,29.676-88.026,29.676-142
	c0-57.221-13.39-108.026-40.144-152.662c-26.844-44.786-62.616-79.825-107.467-105.272c-44.838-25.436-94.026-38.144-147.793-38.144
	c-94.454,0-164.545,29.546-211.486,88.507l-25.994,32.662l2.877-41.643c5.676-82.052,23.117-141.883,53.039-179.572
	c30.454-38.357,70.682-57.792,119.617-57.792c27.662,0,50.818,4.766,69.383,14.545C731.156,225.578,743.824,235.837,753.13,248
	L753.13,248z M643.539,798.701c-37.825,0-70.792-12.299-98.286-36.721c-27.896-24.785-42.006-56.767-42.006-95.032
	c0-38.188,14.052-70.546,41.817-96.221c27.494-25.436,60.533-38.26,98.468-38.26c37.968,0,70.818,12.856,97.884,38.344
	c27.272,25.676,41.052,58,41.052,96.137c0,38.214-13.838,70.162-41.234,94.948C714.176,786.377,681.402,798.701,643.539,798.701
	L643.539,798.701z"/>
</svg>
