<?xml version="1.0" encoding="utf-8"?>
<!-- Generator: Adobe Illustrator 16.0.0, SVG Export Plug-In . SVG Version: 6.00 Build 0)  -->
<!DOCTYPE svg PUBLIC "-//W3C//DTD SVG 1.1//EN" "http://www.w3.org/Graphics/SVG/1.1/DTD/svg11.dtd">
<svg version="1.1" id="rank-8" xmlns="http://www.w3.org/2000/svg" xmlns:xlink="http://www.w3.org/1999/xlink" x="0px" y="0px"
	 width="766.753px" height="994.026px" viewBox="252.987 2.987 766.753 994.026"
	 enable-background="new 252.987 2.987 766.753 994.026" xml:space="preserve">
<path stroke="#595959" stroke-width="20" d="M636.363,987.013c73.604,0,138.688-11.169,195.306-33.441
	c56.084-22.059,99.747-53.623,131.253-94.714c31.201-40.695,46.818-90.104,46.818-148.695c0-47.571-14.682-91.363-44.24-131.753
	c-29.532-40.351-70.37-69.208-122.87-86.688l-35.065-11.682l34.662-12.825c47-17.39,81.637-43.396,104.325-78.039
	c22.922-34.987,34.312-72.584,34.312-113.078c0-51.377-13.851-96.357-41.591-135.325c-27.922-39.234-67.552-70.292-119.123-93.188
	c-51.863-23.039-113.098-34.598-183.786-34.598c-70.688,0-131.922,11.565-183.785,34.598
	c-51.571,22.896-91.195,53.955-119.124,93.188c-27.74,38.968-41.59,83.948-41.59,135.325c0,40.493,11.396,78.091,34.312,113.078
	c22.688,34.643,57.324,60.649,104.324,78.039l34.662,12.825l-35.064,11.675c-52.5,17.487-93.338,46.345-122.87,86.695
	c-29.559,40.39-44.241,84.188-44.241,131.753c0,58.591,15.617,108,46.819,148.695c31.506,41.091,75.168,72.662,131.253,94.714
	C497.682,975.844,562.76,987.013,636.363,987.013L636.363,987.013z M639.61,409.091c-36.363,0-67.104-9.838-91.721-29.61
	c-25.26-20.305-38.149-47.124-38.149-79.416c0-34.052,12.831-61.805,38.149-82.143c24.617-19.772,55.357-29.61,91.721-29.61
	s67.104,9.838,91.721,29.61c25.325,20.351,38.149,48.104,38.149,82.156c0,32.292-12.89,59.11-38.149,79.402
	C706.714,399.253,675.974,409.091,639.61,409.091z M636.363,811.688c-40.616,0-75.039-10.475-102.831-31.532
	c-28.636-21.708-43.272-50.754-43.272-86.039c0-34.403,14.662-62.975,43.272-84.663c27.792-21.058,62.215-31.532,102.831-31.532
	c40.617,0,75.039,10.475,102.832,31.532c28.609,21.688,43.272,50.26,43.272,84.663c0,35.285-14.637,64.331-43.272,86.039
	C711.402,801.214,676.98,811.688,636.363,811.688z"/>
</svg>
