<?xml version="1.0" encoding="utf-8"?>
<!-- Generator: Adobe Illustrator 16.0.0, SVG Export Plug-In . SVG Version: 6.00 Build 0)  -->
<!DOCTYPE svg PUBLIC "-//W3C//DTD SVG 1.1//EN" "http://www.w3.org/Graphics/SVG/1.1/DTD/svg11.dtd">
<svg version="1.1" id="rank-3" xmlns="http://www.w3.org/2000/svg" xmlns:xlink="http://www.w3.org/1999/xlink" x="0px" y="0px"
	 width="747.013px" height="994.026px" viewBox="243.507 2.987 747.013 994.026"
	 enable-background="new 243.507 2.987 747.013 994.026" xml:space="preserve">
<path stroke="#595959" stroke-width="20" d="M264.994,269.98h215.864c8.441-17.545,23.02-32.123,43.338-43.636
	c23.077-13.084,50.844-19.545,83.104-19.545c36.071,0,65.844,7.208,89.11,21.922c24.929,15.76,37.545,40.799,37.545,73.474
	c0,29.565-12.032,54.513-35.538,73.896c-23.033,19-53.117,28.377-89.747,28.377h-99.318v184.194h108.896
	c36.182,0,66.721,7.968,91.351,24.098c26.104,17.098,39.422,42.733,39.422,75.429c0,37.045-12.617,64.772-38.007,81.571
	c-23.753,15.714-53.844,23.441-90.02,23.441c-33.798,0-63.766-6.104-89.785-18.415c-24.013-11.364-41.039-27.741-50.552-48.89
	H255.39c13.61,78.5,50.396,140.584,110.571,186.883c64.182,49.396,150.883,74.233,260.507,74.233
	c69.52,0,131.006-11.578,184.545-34.655c53.149-22.909,94.644-55.104,124.728-96.649c29.838-41.208,44.779-90.507,44.779-148.292
	c0-45.144-12.532-87.624-37.728-127.702c-24.772-39.415-62.856-67.317-114.824-83.817l-35.455-11.267l34.76-13.247
	c43.24-16.48,75.76-41.155,97.941-74.104c22.279-33.091,33.39-70.169,33.39-111.565c0-55.006-14.688-102.455-44.071-142.76
	C884.831,102.208,845.052,70.422,795,47.526c-50.305-23.013-105.98-34.539-167.162-34.539c-101.318,0-182.936,24.779-245.306,74.124
	C324.091,133.338,284.968,194.162,264.994,269.98z"/>
</svg>
