<?xml version="1.0" encoding="utf-8"?>
<!-- Generator: Adobe Illustrator 16.0.0, SVG Export Plug-In . SVG Version: 6.00 Build 0)  -->
<!DOCTYPE svg PUBLIC "-//W3C//DTD SVG 1.1//EN" "http://www.w3.org/Graphics/SVG/1.1/DTD/svg11.dtd">
<svg version="1.1" id="rank-2" xmlns="http://www.w3.org/2000/svg" xmlns:xlink="http://www.w3.org/1999/xlink" x="0px" y="0px"
	 width="740.546px" height="994.026px" viewBox="243.48 2.987 740.546 994.026"
	 enable-background="new 243.48 2.987 740.546 994.026" xml:space="preserve">
<path stroke="#595959" stroke-width="20" d="M264.416,987.013h709.611V791.078H568.078l28.279-23.052L787.61,612.104
	c33.039-26.779,63.299-54.928,90.799-84.441c27.013-28.986,48.578-60.643,64.753-94.993c15.902-33.786,23.883-72.163,23.883-115.253
	c0-61.221-14.896-114.461-44.643-160.032c-29.851-45.728-71.045-81.13-123.831-106.338
	c-53.098-25.351-113.532-38.059-181.454-38.059c-67.825,0-127.701,13.137-179.799,39.351
	c-52.046,26.182-93.877,62.194-125.662,108.143c-29.169,42.162-47.981,89.63-56.448,142.545h221.136
	c8.026-22.857,22.065-42.337,41.942-58.247c22.986-18.403,53.746-27.429,91.863-27.429c38.507,0,68.52,9.98,89.351,30.396
	c20.656,20.26,31.11,45.611,31.11,75.286c0,26.955-7.532,51.52-22.52,73.364c-14.233,20.74-38.877,46.26-74.059,76.883
	L264.416,795.228V987.013z"/>
</svg>
