<?xml version="1.0" encoding="utf-8"?>
<!-- Generator: Adobe Illustrator 16.0.0, SVG Export Plug-In . SVG Version: 6.00 Build 0)  -->
<!DOCTYPE svg PUBLIC "-//W3C//DTD SVG 1.1//EN" "http://www.w3.org/Graphics/SVG/1.1/DTD/svg11.dtd">
<svg version="1.1" id="rank-10" xmlns="http://www.w3.org/2000/svg" xmlns:xlink="http://www.w3.org/1999/xlink" x="0px" y="0px"
	 width="1312.208px" height="1013.506px" viewBox="48.441 2.987 1312.208 1013.506"
	 enable-background="new 48.441 2.987 1312.208 1013.506" xml:space="preserve">
<path stroke="#595959" stroke-width="20" d="M271.149,984.091h232.915V19.325L58.441,127.838v195.714l212.708-54.61v715.143V984.091
	z M956.409,1006.493c80.48,0,149.98-20.26,208.851-60.733c59.045-40.584,104.61-97.708,136.792-171.623
	c32.364-74.357,48.598-162.475,48.598-264.396c0-101.935-16.233-190.039-48.598-264.39
	c-32.175-73.922-77.747-131.039-136.792-171.63c-58.87-40.48-128.37-60.734-208.851-60.734c-80.474,0-149.974,20.26-208.845,60.734
	c-59.045,40.584-104.609,97.708-136.792,171.624c-32.363,74.351-48.597,162.467-48.597,264.396
	c0,101.936,16.233,190.039,48.597,264.39c32.176,73.922,77.747,131.039,136.792,171.63
	C806.436,986.24,875.936,1006.493,956.409,1006.493z M956.409,802.806c-50.825,0-90.532-26.929-117.857-79.078
	c-26.318-50.234-39.266-121.514-39.266-213.987s12.947-163.753,39.266-213.987c27.325-52.143,67.032-79.078,117.857-79.078
	c50.824,0,90.539,26.929,117.857,79.078c26.317,50.234,39.272,121.513,39.272,213.987s-12.955,163.753-39.267,213.987
	c-27.324,52.143-67.039,79.077-117.856,79.077L956.409,802.806z"/>
</svg>
